<svg width="147" height="46" viewBox="0 0 147 46" fill="none" xmlns="http://www.w3.org/2000/svg">
    <g clip-path="url(#clip0_185_893)">
        <path fill-rule="evenodd" clipRule="evenodd"
            d="M9.83531 38.4715C7.29967 38.4512 4.87561 37.411 3.0954 35.5793C1.31519 33.7477 0.32435 31.2741 0.340465 28.702V9.8155C0.340465 7.26519 1.33922 4.81929 3.11701 3.01595C4.8948 1.21261 7.30601 0.199524 9.82018 0.199524C12.3344 0.199524 14.7456 1.21261 16.5234 3.01595C18.3012 4.81929 19.2999 7.26519 19.2999 9.8155V28.702C19.3161 31.2689 18.3294 33.7378 16.5557 35.5686C14.782 37.3994 12.3657 38.4431 9.83531 38.4715ZM5.77257 28.702C5.77257 29.795 6.20062 30.8432 6.96253 31.6161C7.72444 32.3889 8.7578 32.8232 9.83531 32.8232C10.9128 32.8232 11.9462 32.3889 12.7081 31.6161C13.47 30.8432 13.8981 29.795 13.8981 28.702V9.8155C13.8981 8.72251 13.47 7.67432 12.7081 6.90146C11.9462 6.1286 10.9128 5.69438 9.83531 5.69438C8.7578 5.69438 7.72444 6.1286 6.96253 6.90146C6.20062 7.67432 5.77257 8.72251 5.77257 9.8155V28.702Z"
            fill="url(#paint0_linear_185_893)" />
        <path
            d="M27.9247 15.2873V34.028C27.9247 34.9336 29.1579 35.6703 30.6861 35.6703C32.2144 35.6703 33.44 34.9029 33.44 34.028V15.2873C33.44 14.3741 32.2068 13.6373 30.6861 13.6373C29.1654 13.6373 27.9247 14.3741 27.9247 15.2873Z"
            fill="url(#paint1_linear_185_893)" />
        <path
            d="M29.0898 31.5953L19.1864 41.641C18.4298 42.4084 18.7173 43.8819 19.7841 44.9639C20.8508 46.046 22.3261 46.3223 23.06 45.5779L32.9709 35.5246C33.7275 34.7571 33.44 33.2914 32.3657 32.2016C31.2914 31.1119 29.8463 30.8432 29.0898 31.5953Z"
            fill="url(#paint2_linear_185_893)" />
        <path fill-rule="evenodd" clipRule="evenodd"
            d="M3.0338 35.6089C1.23569 33.7729 0.226501 31.29 0.226501 28.702C0.226501 26.114 1.23569 23.6311 3.0338 21.7951L16.198 8.44173C17.0664 7.4261 18.1317 6.60278 19.3275 6.02298C20.5233 5.44318 21.8239 5.11931 23.1485 5.07165C24.473 5.02398 25.7931 5.25348 27.0264 5.74587C28.2597 6.23826 29.3798 6.98304 30.317 7.93369C31.2542 8.88435 31.9883 10.0205 32.4738 11.2715C32.9592 12.5226 33.1854 13.8615 33.1384 15.2051C33.0914 16.5487 32.7722 17.8681 32.2006 19.0811C31.629 20.294 30.8173 21.3746 29.8161 22.2555L16.6822 35.6089C14.8719 37.4441 12.4173 38.475 9.85798 38.475C7.29865 38.475 4.84406 37.4441 3.0338 35.6089ZM6.93009 25.7167C6.1723 26.508 5.75208 27.5702 5.76034 28.6734C5.7686 29.7766 6.20468 30.8322 6.97424 31.6118C7.74379 32.3914 8.78496 32.8324 9.87255 32.8393C10.9601 32.8463 12.0067 32.4186 12.7859 31.6489L25.9501 18.2956C26.6769 17.4991 27.0714 16.4481 27.0508 15.363C27.0302 14.2778 26.596 13.243 25.8395 12.4755C25.0829 11.7081 24.0627 11.2677 22.9929 11.2468C21.9232 11.2259 20.887 11.626 20.1018 12.3633L6.93009 25.7167Z"
            fill="url(#paint3_linear_185_893)" />
        <path fill-rule="evenodd" clipRule="evenodd"
            d="M27.153 15.5251C27.1862 14.7599 26.9929 14.0021 26.598 13.3493C26.203 12.6965 25.6245 12.1785 24.9368 11.862C24.2492 11.5456 23.484 11.4451 22.7395 11.5735C21.9951 11.7019 21.3056 12.0534 20.7598 12.5827C20.214 13.112 19.8369 13.7949 19.6769 14.5435C19.5169 15.292 19.5815 16.0721 19.8622 16.7831C20.143 17.4941 20.6271 18.1037 21.2523 18.5332C21.8775 18.9628 22.6151 19.1928 23.3702 19.1935C24.3503 19.2121 25.2979 18.837 26.0065 18.1498C26.7151 17.4627 27.1272 16.5192 27.153 15.5251ZM33.3644 15.5251C33.3974 13.5117 32.839 11.5339 31.7603 9.8434C30.6815 8.15292 29.1313 6.8263 27.3069 6.03246C25.4824 5.23862 23.4664 5.0135 21.5154 5.38569C19.5644 5.75788 17.7667 6.71057 16.3513 8.12248C14.9358 9.5344 13.9666 11.3417 13.567 13.3142C13.1674 15.2867 13.3555 17.3351 14.1074 19.1988C14.8592 21.0625 16.1408 22.6571 17.789 23.7796C19.4372 24.902 21.3774 25.5015 23.3626 25.5018C24.6651 25.5129 25.9571 25.2637 27.1647 24.7684C28.3722 24.273 29.4718 23.5413 30.4005 22.6148C31.3293 21.6884 32.0691 20.5854 32.5776 19.369C33.0861 18.1525 33.3535 16.8464 33.3644 15.5251Z"
            fill="url(#paint4_linear_185_893)" />
        <path fill-rule="evenodd" clipRule="evenodd"
            d="M9.85045 13.3533C9.17966 13.3871 8.51429 13.2161 7.94025 12.8624C7.36622 12.5088 6.90986 11.9887 6.63012 11.3693C6.35038 10.75 6.26009 10.0598 6.37091 9.3879C6.48172 8.71597 6.78854 8.09318 7.25178 7.59991C7.71501 7.10663 8.3134 6.76554 8.96965 6.62066C9.6259 6.47578 10.3099 6.53376 10.9333 6.78713C11.5568 7.04051 12.091 7.47765 12.4671 8.04208C12.8432 8.60652 13.0438 9.27228 13.0431 9.95355C13.0542 10.3896 12.9803 10.8236 12.8257 11.2306C12.6712 11.6376 12.4389 12.0097 12.1423 12.3255C11.8458 12.6414 11.4907 12.8947 11.0974 13.0711C10.7041 13.2474 10.2803 13.3434 9.85045 13.3533ZM9.85045 19.6539C7.95392 19.6859 6.09085 19.145 4.49816 18.1001C2.90546 17.0552 1.65507 15.5535 0.905988 13.7858C0.156906 12.0182 -0.0570319 10.0645 0.291373 8.17314C0.639779 6.28183 1.5348 4.53838 2.86262 3.1644C4.19043 1.79041 5.89106 0.847925 7.74827 0.456926C9.60548 0.0659271 11.5354 0.244016 13.2925 0.968517C15.0497 1.69302 16.5548 2.93122 17.6164 4.52568C18.6781 6.12013 19.2482 7.99888 19.2545 9.92291C19.2655 11.1864 19.0309 12.4396 18.5641 13.611C18.0974 14.7825 17.4076 15.849 16.5343 16.7499C15.6609 17.6508 14.6211 18.3683 13.4742 18.8613C12.3274 19.3543 11.096 19.6133 9.85045 19.6233V19.6539Z"
            fill="url(#paint5_linear_185_893)" />
        <path fill-rule="evenodd" clipRule="evenodd"
            d="M9.82775 31.8869C9.12504 31.9237 8.42757 31.7459 7.82548 31.3765C7.22339 31.0071 6.74433 30.4631 6.45022 29.8147C6.1561 29.1662 6.06043 28.4432 6.17558 27.7391C6.29073 27.0349 6.6114 26.382 7.09616 25.8646C7.58092 25.3472 8.20749 24.9893 8.89491 24.8368C9.58234 24.6844 10.299 24.7446 10.9524 25.0096C11.6057 25.2746 12.1658 25.7323 12.56 26.3235C12.9543 26.9147 13.1648 27.6122 13.1642 28.326C13.1866 29.2468 12.8478 30.1389 12.2222 30.8066C11.5967 31.4742 10.7355 31.8628 9.82775 31.8869ZM9.82775 38.4714C7.84284 38.505 5.89298 37.9385 4.22645 36.8443C2.55993 35.7501 1.25212 34.1776 0.469525 32.3269C-0.313069 30.4763 -0.535048 28.4312 -0.168131 26.4522C0.198786 24.4732 1.138 22.6497 2.52991 21.2139C3.92183 19.7781 5.70347 18.7949 7.64802 18.3895C9.59258 17.9842 11.6121 18.1751 13.4494 18.9378C15.2867 19.7004 16.8587 21.0005 17.9652 22.6723C19.0717 24.3442 19.6628 26.3123 19.6631 28.326C19.675 29.6475 19.43 30.9585 18.942 32.1839C18.454 33.4092 17.7327 34.525 16.8192 35.4673C15.9057 36.4096 14.818 37.16 13.6183 37.6754C12.4187 38.1909 11.1306 38.4614 9.82775 38.4714Z"
            fill="url(#paint6_linear_185_893)" />
        <path
            d="M64.0808 24.2432C64.0543 23.3481 64.3786 22.4789 64.9827 21.8258C65.5868 21.1727 66.4214 20.7892 67.3038 20.7592H68.31V31.1272C67.0305 32.2156 65.5596 33.0488 63.9749 33.5829C62.3355 34.1494 60.6151 34.4373 58.8832 34.4348C56.5613 34.4694 54.2718 33.8788 52.2482 32.7234C50.2996 31.5848 48.6937 29.9293 47.6029 27.9346C46.4953 25.8168 45.9162 23.4559 45.9162 21.0585C45.9162 18.661 46.4953 16.3001 47.6029 14.1822C48.6868 12.1902 50.295 10.543 52.2482 9.42413C54.2914 8.24488 56.6082 7.64078 58.9589 7.67436C60.8451 7.65014 62.7166 8.01572 64.4591 8.74879C65.1901 9.10272 65.8803 9.53764 66.5169 10.0457C66.8889 10.3634 67.1737 10.7733 67.3437 11.2355C67.5136 11.6976 67.5629 12.1966 67.4868 12.6838C67.4106 13.171 67.2117 13.6299 66.9092 14.0162C66.6067 14.4024 66.211 14.7028 65.7603 14.8883C64.9285 13.9396 63.9059 13.183 62.7613 12.6693C61.6167 12.1557 60.3768 11.8969 59.1253 11.9106C57.5386 11.8818 55.9726 12.2789 54.586 13.0618C53.2787 13.8298 52.2075 14.9509 51.4916 16.3003C50.7365 17.7675 50.3567 19.4036 50.387 21.0585C50.3636 22.688 50.7433 24.2976 51.4916 25.7398C52.2131 27.093 53.2824 28.2227 54.586 29.0091C55.9637 29.8183 57.5335 30.2297 59.1253 30.1985C60.8683 30.2367 62.5863 29.7737 64.0808 28.8632V24.2432Z"
            fill="url(#paint7_linear_185_893)" />
        <path
            d="M73.9691 17.6971C75.2098 15.6173 79.3331 14.3663 82.4501 14.3663V17.7047C82.4442 17.968 82.3358 18.2182 82.1487 18.4008C81.9617 18.5834 81.711 18.6834 81.4515 18.6793C80.7203 18.6323 79.9878 18.7497 79.3065 19.023C78.6251 19.2963 78.0116 19.7188 77.5098 20.2603C76.4915 21.5369 75.9886 23.1578 76.1026 24.7958V32.0941C76.12 32.3917 76.0772 32.6898 75.9769 32.9701C75.8766 33.2503 75.7209 33.5068 75.5193 33.7237C75.3177 33.9407 75.0745 34.1135 74.8047 34.2317C74.5348 34.3498 74.244 34.4108 73.9501 34.4108C73.6562 34.4108 73.3654 34.3498 73.0956 34.2317C72.8257 34.1135 72.5826 33.9407 72.381 33.7237C72.1794 33.5068 72.0237 33.2503 71.9234 32.9701C71.8231 32.6898 71.7803 32.3917 71.7977 32.0941V21.9103C71.7963 21.2948 72.0262 20.702 72.4408 20.2526C72.5893 20.1109 72.7167 19.948 72.8191 19.7691L73.9691 17.6971Z"
            fill="url(#paint8_linear_185_893)" />
        <path
            d="M93.7607 34.3273C92.0018 34.3516 90.2682 33.9014 88.7372 33.0227C87.2642 32.1708 86.0519 30.9226 85.2343 29.4158C84.3923 27.7914 83.9657 25.9786 83.9935 24.1435C83.9613 22.3178 84.3883 20.5137 85.2343 18.9019C86.0497 17.3934 87.2625 16.1446 88.7372 15.295C90.284 14.4392 92.0177 13.9908 93.7796 13.9908C95.5416 13.9908 97.2753 14.4392 98.8221 15.295C100.293 16.1393 101.497 17.3901 102.295 18.9019C103.16 20.5074 103.598 22.314 103.566 24.1435C103.594 25.9823 103.156 27.7977 102.295 29.4158C101.495 30.9258 100.291 32.176 98.8221 33.0227C97.2788 33.9049 95.532 34.3551 93.7607 34.3273ZM93.7607 30.3443C94.4975 30.3637 95.2298 30.2214 95.9074 29.9274C96.5851 29.6333 97.1922 29.1945 97.6873 28.6407C98.6869 27.3595 99.2309 25.7735 99.2309 24.1397C99.2309 22.5058 98.6869 20.9197 97.6873 19.6386C97.1808 19.1007 96.572 18.6725 95.8978 18.38C95.2235 18.0875 94.4978 17.9367 93.7645 17.9367C93.0312 17.9367 92.3055 18.0875 91.6312 18.38C90.957 18.6725 90.3482 19.1007 89.8417 19.6386C88.8608 20.928 88.3287 22.5109 88.3287 24.1397C88.3287 25.7684 88.8608 27.3512 89.8417 28.6407C90.3347 29.1951 90.9404 29.6345 91.6169 29.9286C92.2935 30.2227 93.0249 30.3646 93.7607 30.3443Z"
            fill="url(#paint9_linear_185_893)" />
        <path
            d="M120.967 14.2129C121.849 14.2429 122.684 14.6265 123.288 15.2795C123.892 15.9326 124.216 16.8019 124.19 17.6971V34.0741H120.097V31.5415C119.412 32.4354 118.528 33.151 117.517 33.629C116.467 34.103 115.329 34.3437 114.18 34.335C113.115 34.391 112.05 34.2252 111.051 33.8478C110.052 33.4703 109.139 32.8891 108.37 32.1401C106.973 30.6513 106.274 28.4591 106.274 25.5633V14.2206H107.349C108.231 14.2506 109.066 14.6342 109.67 15.2872C110.274 15.9403 110.598 16.8096 110.572 17.7048V24.9262C110.465 26.3529 110.853 27.7726 111.669 28.94C112.074 29.3831 112.572 29.7298 113.125 29.9553C113.678 30.1809 114.274 30.2797 114.869 30.2446C115.551 30.2772 116.231 30.1565 116.861 29.8911C117.492 29.6258 118.057 29.2224 118.515 28.7097C119.506 27.4494 119.997 25.8593 119.892 24.2509V14.2129H120.967Z"
            fill="url(#paint10_linear_185_893)" />
        <path
            d="M137.679 13.9903C139.357 13.9614 141.011 14.3993 142.461 15.2566C143.88 16.1057 145.036 17.3422 145.797 18.8252C146.625 20.4701 147.038 22.2972 147 24.1435C147.038 26.007 146.625 27.8515 145.797 29.5156C145.036 30.9986 143.88 32.235 142.461 33.0841C141.011 33.9413 139.357 34.3793 137.679 34.3503C136.561 34.397 135.447 34.1793 134.425 33.7145C133.404 33.2497 132.503 32.5505 131.793 31.672V42.4622C131.818 42.7638 131.781 43.0673 131.684 43.3536C131.588 43.64 131.434 43.9029 131.232 44.1257C131.03 44.3485 130.784 44.5263 130.511 44.6479C130.238 44.7696 129.943 44.8324 129.644 44.8324C129.346 44.8324 129.051 44.7696 128.778 44.6479C128.505 44.5263 128.259 44.3485 128.057 44.1257C127.855 43.9029 127.701 43.64 127.605 43.3536C127.508 43.0673 127.471 42.7638 127.496 42.4622V16.5613C127.484 15.968 127.702 15.3937 128.104 14.9628C128.507 14.5319 129.06 14.279 129.644 14.259H131.589V16.8605C132.272 15.9454 133.169 15.2175 134.199 14.7425C135.295 14.2487 136.48 13.9924 137.679 13.9903ZM137.195 30.3444C137.927 30.3658 138.654 30.2244 139.326 29.93C139.997 29.6357 140.598 29.1956 141.084 28.6407C142.083 27.3596 142.627 25.7736 142.627 24.1397C142.627 22.5058 142.083 20.9197 141.084 19.6386C140.598 19.0837 139.997 18.6436 139.326 18.3493C138.654 18.0549 137.927 17.9135 137.195 17.9349C136.213 17.9239 135.248 18.1929 134.409 18.7112C133.57 19.2295 132.892 19.9763 132.451 20.8666C131.975 21.8902 131.729 23.008 131.729 24.1397C131.729 25.2714 131.975 26.3891 132.451 27.4127C132.879 28.3136 133.554 29.0698 134.396 29.59C135.238 30.1101 136.21 30.3722 137.195 30.3444Z"
            fill="url(#paint11_linear_185_893)" />
    </g>
    <defs>
        <linearGradient id="paint0_linear_185_893" x1="2.61772" y1="9.43176" x2="18.143" y2="29.9401"
            gradientUnits="userSpaceOnUse">
            <stop offset="0.3" stop-color="#0066FF" />
            <stop offset="0.73" stop-color="#FD5A5A" />
        </linearGradient>
        <linearGradient id="paint1_linear_185_893" x1="30.6861" y1="20.4905" x2="30.6861" y2="11.5576"
            gradientUnits="userSpaceOnUse">
            <stop stop-color="#FD5A5A" />
            <stop offset="1" stop-color="white" stop-opacity="0" />
        </linearGradient>
        <linearGradient id="paint2_linear_185_893" x1="29.8312" y1="34.6036" x2="18.2905" y2="46.5032"
            gradientUnits="userSpaceOnUse">
            <stop stop-color="#FD5A5A" />
            <stop offset="1" stop-color="#0066FF" />
        </linearGradient>
        <linearGradient id="paint3_linear_185_893" x1="15400.6" y1="163025" x2="15831.2" y2="162601"
            gradientUnits="userSpaceOnUse">
            <stop stop-color="#FD5A5A" />
            <stop offset="1" stop-color="#0066FF" />
        </linearGradient>
        <linearGradient id="paint4_linear_185_893" x1="13.3609" y1="15.5252" x2="33.3644" y2="15.5252"
            gradientUnits="userSpaceOnUse">
            <stop stop-color="#0066FF" />
            <stop offset="0.6" stop-color="#FD5A5A" />
        </linearGradient>
        <linearGradient id="paint5_linear_185_893" x1="8904.72" y1="95090.7" x2="8904.72" y2="94600.4"
            gradientUnits="userSpaceOnUse">
            <stop stop-color="#0066FF" />
            <stop offset="0.6" stop-color="#FD5A5A" />
        </linearGradient>
        <linearGradient id="paint6_linear_185_893" x1="9312.29" y1="98997.1" x2="9312.29" y2="98460.8"
            gradientUnits="userSpaceOnUse">
            <stop stop-color="#0066FF" />
            <stop offset="0.6" stop-color="#FD5A5A" />
        </linearGradient>
        <linearGradient id="paint7_linear_185_893" x1="57.1129" y1="7.67436" x2="57.1129" y2="44.7644"
            gradientUnits="userSpaceOnUse">
            <stop stop-color="#FD5A5A" />
            <stop offset="0.48" stop-color="#0066FF" />
        </linearGradient>
        <linearGradient id="paint8_linear_185_893" x1="5980.76" y1="98065.3" x2="5980.76" y2="97096.6"
            gradientUnits="userSpaceOnUse">
            <stop stop-color="#FD5A5A" />
            <stop offset="0.48" stop-color="#0066FF" />
        </linearGradient>
        <linearGradient id="paint9_linear_185_893" x1="11369.5" y1="99499.3" x2="11369.5" y2="98516.4"
            gradientUnits="userSpaceOnUse">
            <stop stop-color="#FD5A5A" />
            <stop offset="0.48" stop-color="#0066FF" />
        </linearGradient>
        <linearGradient id="paint10_linear_185_893" x1="10943.5" y1="98497.1" x2="10943.5" y2="97524.1"
            gradientUnits="userSpaceOnUse">
            <stop stop-color="#FD5A5A" />
            <stop offset="0.48" stop-color="#0066FF" />
        </linearGradient>
        <linearGradient id="paint11_linear_185_893" x1="12498.7" y1="150890" x2="12498.7" y2="149400"
            gradientUnits="userSpaceOnUse">
            <stop stop-color="#FD5A5A" />
            <stop offset="0.48" stop-color="#0066FF" />
        </linearGradient>
        <clipPath id="clip0_185_893">
            <rect width="147" height="46" fill="white" />
        </clipPath>
    </defs>
</svg>